<svg id="visual" viewBox="0 0 1920 1080" width="1920" height="1080" xmlns="http://www.w3.org/2000/svg" xmlns:xlink="http://www.w3.org/1999/xlink" version="1.1"><rect width="1920" height="1080" fill="#203644"></rect><g><g transform="translate(297 621)"><path d="M0 -47.3L41 -23.7L41 23.7L0 47.3L-41 23.7L-41 -23.7Z" fill="#D97904"></path></g><g transform="translate(1561 340)"><path d="M0 -26L22.5 -13L22.5 13L0 26L-22.5 13L-22.5 -13Z" fill="#D97904"></path></g><g transform="translate(592 963)"><path d="M0 -12L10.4 -6L10.4 6L0 12L-10.4 6L-10.4 -6Z" fill="#D97904"></path></g><g transform="translate(1089 722)"><path d="M0 -12L10.4 -6L10.4 6L0 12L-10.4 6L-10.4 -6Z" fill="#D97904"></path></g><g transform="translate(232 809)"><path d="M0 -18L15.6 -9L15.6 9L0 18L-15.6 9L-15.6 -9Z" fill="#D97904"></path></g><g transform="translate(343 422)"><path d="M0 -28L24.2 -14L24.2 14L0 28L-24.2 14L-24.2 -14Z" fill="#D97904"></path></g><g transform="translate(1022 358)"><path d="M0 -36L31.2 -18L31.2 18L0 36L-31.2 18L-31.2 -18Z" fill="#D97904"></path></g><g transform="translate(630 85)"><path d="M0 -30L26 -15L26 15L0 30L-26 15L-26 -15Z" fill="#D97904"></path></g><g transform="translate(1564 75)"><path d="M0 -28L24.2 -14L24.2 14L0 28L-24.2 14L-24.2 -14Z" fill="#D97904"></path></g><g transform="translate(1124 1011)"><path d="M0 -31L26.8 -15.5L26.8 15.5L0 31L-26.8 15.5L-26.8 -15.5Z" fill="#D97904"></path></g><g transform="translate(458 667)"><path d="M0 -46L39.8 -23L39.8 23L0 46L-39.8 23L-39.8 -23Z" fill="#D97904"></path></g><g transform="translate(1802 715)"><path d="M0 -44L38.1 -22L38.1 22L0 44L-38.1 22L-38.1 -22Z" fill="#D97904"></path></g><g transform="translate(63 178)"><path d="M0 -31L26.8 -15.5L26.8 15.5L0 31L-26.8 15.5L-26.8 -15.5Z" fill="#D97904"></path></g><g transform="translate(36 60)"><path d="M0 -16L13.9 -8L13.9 8L0 16L-13.9 8L-13.9 -8Z" fill="#D97904"></path></g><g transform="translate(786 920)"><path d="M0 -39L33.8 -19.5L33.8 19.5L0 39L-33.8 19.5L-33.8 -19.5Z" fill="#D97904"></path></g><g transform="translate(986 234)"><path d="M0 -14L12.1 -7L12.1 7L0 14L-12.1 7L-12.1 -7Z" fill="#D97904"></path></g><g transform="translate(1210 392)"><path d="M0 -23L19.9 -11.5L19.9 11.5L0 23L-19.9 11.5L-19.9 -11.5Z" fill="#D97904"></path></g><g transform="translate(1260 247)"><path d="M0 -17L14.7 -8.5L14.7 8.5L0 17L-14.7 8.5L-14.7 -8.5Z" fill="#D97904"></path></g><g transform="translate(536 745)"><path d="M0 -40L34.6 -20L34.6 20L0 40L-34.6 20L-34.6 -20Z" fill="#D97904"></path></g><g transform="translate(732 591)"><path d="M0 -35L30.3 -17.5L30.3 17.5L0 35L-30.3 17.5L-30.3 -17.5Z" fill="#D97904"></path></g></g></svg>